With: Michiel Romeyn, Carice van Houten and Wendy van Dijk

Nederlands gesproken,
In Alles Is Liefde draait alles om de liefde, in alle denkbare combinaties. Klaasje (Wendy van Dijk) is gescheiden van Dennis (Peter Paul Muller) nadat hij haar heeft bedrogen met de juf (Chantal Janzen) van hun zoontje. Hoewel Dennis haar terug wil, lijken zijn kansen verkeken als Klaasje een aantrekkelijke jonge minnaar tegenkomt (Valerio Zeno). Simone, de beste vriendin van Klaasje (Anneke Blok) is de spil van haar gezin dat ze met strakke schema's door het drukke dagelijkse leven leidt. Haar man Ted (Thomas Acda) voelt zich daardoor vaak buitengesloten en overbodig. Als hij wordt ontslagen als kraandrijver, durft hij het haar dan ook niet te vertellen. Badmeester Victor (Paul de Leeuw) verheugt zich op zijn aanstaande huwelijk met Kees, zijn grote liefde (Daan Schuurmans). Terwijl 5 december nadert en alle liefdeslijnen bij elkaar komen via de mysterieuze Sinterklaasfiguur Jan (Michiel Romeyn), lijken de liefdesperikelen te worden overwonnen...

Dutch spoken,
LOVE IS ALL Klaasje has divorced Dennis, who cheated on her with a school teacher. Dennis would like her back, but when she moves in with a young lover it looks as if he has missed the boat...
 
http://www.imdb.com/title/tt0468644	

------------------------ Dutch Friends ------------------------
---------------------------------------------------------------
- Bezoek ook eens mijn vrienden op:  http://www.Film-Test.nl --
----- voor mijn Nederlandse Sync. ondertitels ---- en meer ----
------- http://www.Film-Test.nl ---- Over Films en meer -------
---------------------------------------------------------------

General:

Complete name                    : Alles is liefdeAlles is liefde.avi
Format                           : AVI
Format/Info                      : Audio Video Interleave
File size                        : 2.07 GiB
Duration                         : 1h 56mn
Overall bit rate                 : 2 547 Kbps

Video:

Format                           : MPEG-4 Visual
Format profile                   : Simple@L3
Format settings, BVOP            : No
Format settings, QPel            : No
Format settings, GMC             : No warppoints
Format settings, Matrix          : Default (H.263)
Codec ID                         : XVID
Codec ID/Hint                    : XviD
Duration                         : 1h 56mn
Bit rate                         : 2 088 Kbps
Width                            : 720 pixels
Height                           : 304 pixels
Display aspect ratio             : 2.35:1
Frame rate                       : 25.000 fps
Color space                      : YUV
Chroma subsampling               : 4:2:0
Bit depth                        : 8 bits
Scan type                        : Progressive
Compression mode                 : Lossy
Bits/(Pixel*Frame)               : 0.382
Stream size                      : 1.69 GiB (82%)
Writing library                  : XviD 1.1.2 (UTC 2006-11-01)

Audio:

Format                           : AC-3
Format/Info                      : Audio Coding 3
Mode extension                   : CM (complete main)
Codec ID                         : 2000
Duration                         : 1h 56mn
Bit rate mode                    : Constant
Bit rate                         : 448 Kbps
Channel(s)                       : 6 channels
Channel positions                : Front: L C R, Side: L R, LFE
Sampling rate                    : 48.0 KHz
Bit depth                        : 16 bits
Compression mode                 : Lossy
Stream size                      : 372 MiB (18%)
Alignment                        : Aligned on interleaves
Interleave, duration             : 32 ms (0.80 video frame)
Interleave, preload duration     : 288 ms